<svg width="40" height="40" viewBox="0 0 40 40" fill="none" xmlns="http://www.w3.org/2000/svg">
<g id="+18">
<path id="&#208;&#173;&#208;&#187;&#208;&#187;&#208;&#184;&#208;&#191;&#209;&#129; 1" d="M20 40C31.0457 40 40 31.0457 40 20C40 8.9543 31.0457 0 20 0C8.9543 0 0 8.9543 0 20C0 31.0457 8.9543 40 20 40Z" fill="#FE2A4A"/>
<path id="&#208;&#173;&#208;&#187;&#208;&#187;&#208;&#184;&#208;&#191;&#209;&#129; 2" d="M20 35.6C28.6157 35.6 35.6 28.6157 35.6 20C35.6 11.3844 28.6157 4.40002 20 4.40002C11.3844 4.40002 4.40002 11.3844 4.40002 20C4.40002 28.6157 11.3844 35.6 20 35.6Z" fill="white"/>
<path id="&#208;&#154;&#208;&#190;&#208;&#189;&#209;&#130;&#209;&#131;&#209;&#128; 9" d="M10.4999 17.6801C10.3829 17.7715 10.2385 17.8208 10.0899 17.8201C9.97632 17.8201 9.86434 17.7929 9.76341 17.7407C9.66249 17.6885 9.57556 17.6128 9.50995 17.5201L8.99995 16.8601C8.9111 16.7416 8.86208 16.5981 8.85995 16.4501C8.85817 16.3361 8.88464 16.2235 8.93699 16.1223C8.98934 16.0211 9.06594 15.9344 9.15995 15.8701L11.1599 14.4101C11.3735 14.2228 11.646 14.1166 11.9299 14.1101H12.5099C12.6948 14.1126 12.8713 14.1872 13.0021 14.3179C13.1328 14.4487 13.2074 14.6252 13.2099 14.8101V24.0001C13.2074 24.1849 13.1328 24.3614 13.0021 24.4922C12.8713 24.6229 12.6948 24.6975 12.5099 24.7001H11.6299C11.4575 24.6805 11.2983 24.5985 11.1822 24.4695C11.0661 24.3406 11.0013 24.1736 10.9999 24.0001V17.3001L10.4999 17.6801ZM22.3099 16.7401C22.312 17.2591 22.1714 17.7687 21.9033 18.2132C21.6352 18.6576 21.25 19.0198 20.7899 19.2601C21.3255 19.4274 21.7906 19.7673 22.1127 20.2268C22.4347 20.6863 22.5955 21.2395 22.5699 21.8001C22.5699 23.8001 20.9599 24.9301 18.7399 24.9301C16.5199 24.9301 14.8899 23.8001 14.8899 22.0001C14.863 21.4364 15.0034 20.8775 15.2935 20.3935C15.5835 19.9095 16.0102 19.5221 16.5199 19.2801C16.0817 19.0218 15.7225 18.6486 15.481 18.2009C15.2396 17.7533 15.1251 17.2481 15.1499 16.7401C15.1499 15.0701 16.7299 13.9301 18.7199 13.9301C20.7099 13.9301 22.3099 15.0601 22.3099 16.7401ZM17.3099 21.5401C17.3099 22.1301 17.7099 22.6501 18.7099 22.6501C19.7099 22.6501 20.1199 22.1501 20.1199 21.5901C20.1201 21.428 20.0855 21.2678 20.0183 21.1204C19.9512 20.9729 19.8531 20.8416 19.7308 20.7354C19.6084 20.6292 19.4647 20.5505 19.3092 20.5047C19.1538 20.4589 18.9903 20.4471 18.8299 20.4701H18.6499C18.492 20.4506 18.3317 20.4631 18.1787 20.5067C18.0256 20.5503 17.8828 20.6242 17.7588 20.724C17.6348 20.8237 17.5321 20.9474 17.4567 21.0875C17.3813 21.2277 17.3348 21.3816 17.3199 21.5401H17.3099ZM19.8599 17.1501C19.8599 16.5601 19.4599 16.2101 18.6899 16.2101C17.9199 16.2101 17.5699 16.6501 17.5699 17.1501C17.5697 17.2866 17.5974 17.4217 17.6514 17.5471C17.7053 17.6725 17.7844 17.7856 17.8837 17.8792C17.983 17.9729 18.1005 18.0453 18.2288 18.0919C18.3572 18.1384 18.4937 18.1582 18.6299 18.1501H18.8299C18.9654 18.1568 19.1008 18.136 19.228 18.0888C19.3552 18.0416 19.4714 17.969 19.5696 17.8754C19.6678 17.7819 19.746 17.6694 19.7993 17.5446C19.8527 17.4199 19.8801 17.2857 19.8799 17.1501H19.8599ZM26.7399 22.8901C26.5471 22.8875 26.363 22.8097 26.2266 22.6734C26.0903 22.537 26.0125 22.3529 26.0099 22.1601V20.2601H24.2199C24.0271 20.2575 23.843 20.1797 23.7066 20.0434C23.5703 19.907 23.4925 19.7229 23.4899 19.5301V19.0001C23.4925 18.8073 23.5703 18.6231 23.7066 18.4867C23.843 18.3504 24.0271 18.2726 24.2199 18.2701H25.9999V16.4201C26.0025 16.2273 26.0803 16.0431 26.2166 15.9067C26.353 15.7704 26.5371 15.6926 26.7299 15.6901H27.3999C27.5927 15.6926 27.7769 15.7704 27.9133 15.9067C28.0496 16.0431 28.1274 16.2273 28.1299 16.4201V18.2901H29.9999C30.1927 18.2926 30.3769 18.3704 30.5133 18.5067C30.6496 18.6431 30.7274 18.8273 30.7299 19.0201V19.5401C30.7274 19.7329 30.6496 19.917 30.5133 20.0534C30.3769 20.1897 30.1927 20.2675 29.9999 20.2701H28.1399V22.1701C28.1374 22.3629 28.0596 22.547 27.9233 22.6834C27.7869 22.8197 27.6027 22.8975 27.4099 22.9001L26.7399 22.8901Z" fill="black"/>
</g>
</svg>
