<svg width="40" height="32" viewBox="0 0 40 32" fill="none" xmlns="http://www.w3.org/2000/svg">
<g id="Group 2">
<g id="Group">
<path id="Vector" d="M24.0927 29.4709C24.0773 27.6458 24.1736 25.8216 24.3813 24.0083C24.691 21.8965 24.0857 19.1723 20.7842 18.9752C17.4827 18.7781 14.9415 18.2079 14.6459 15.4907M1.83426 29.4709C1.85729 27.6416 1.76795 25.8126 1.56677 23.9942C1.25703 21.8824 1.95393 19.7284 5.16388 18.9611M16.6873 10.7603C16.4832 11.889 16.1478 12.9899 15.6877 14.0406C15.1668 14.9346 13.2169 16.9408 12.5059 16.8563C11.7949 16.7719 8.52165 14.7938 8.28231 13.2381C8.11336 12.1329 8.04297 10.7743 8.04297 10.7743" stroke="#DE593E" stroke-width="1.5" stroke-linecap="round" stroke-linejoin="round"/>
<path id="Vector_2" d="M16.6873 14.7868C17.3265 14.3825 17.8753 13.8505 18.2993 13.2241C19.0032 12.1752 19.5593 9.77482 19.5523 7.67006C19.589 6.6918 19.37 5.72089 18.9169 4.85308C18.4639 3.98528 17.7925 3.25056 16.9689 2.72139C15.9307 2.08829 14.7486 1.72977 13.5337 1.67957C14.4471 2.59322 15.1174 3.72091 15.4836 4.9599C15.8144 8.22616 11.3796 9.02161 8.88065 9.18352C8.22868 9.27346 7.60676 9.51451 7.06449 9.88745M20.7631 19.285C20.8696 20.272 20.764 21.2704 20.4533 22.2134C19.9324 24.1633 21.2136 24.5715 21.2136 26.9227C21.2136 31.6109 15.6947 31.2308 14.6107 29.3865M12.1258 22.143C12.6981 22.3089 13.3031 22.3269 13.8843 22.1952C14.4654 22.0634 15.0036 21.7863 15.4484 21.3898C15.8534 20.9571 16.1521 20.436 16.3207 19.8678C16.4893 19.2997 16.5232 18.7 16.4198 18.1165M15.8285 6.5508C16.2046 7.60559 16.805 8.56626 17.5883 9.36654L15.8285 6.5508ZM5.15683 14.097C3.11541 17.8067 7.97257 20.5943 8.9088 24.5997C10.0844 22.868 11.7245 20.4606 10.1407 17.504L5.15683 14.097Z" stroke="#DE593E" stroke-width="1.5" stroke-linecap="round" stroke-linejoin="round"/>
<path id="Vector_3" d="M7.14187 16.8493C6.86029 13.3789 3.3195 12.7524 4.94559 6.46629C6.57168 0.180151 12.7874 1.31349 12.7874 1.31349M5.00894 19.285C4.90242 20.272 5.00802 21.2704 5.31867 22.2133C5.83958 24.1632 4.55842 24.5715 4.55842 26.9227C4.55842 31.6109 10.0773 31.2307 11.1613 29.3864M5.83958 30.3015L5.35387 30.7661M20.1858 30.3015L20.6715 30.7661" stroke="#DE593E" stroke-width="1.5" stroke-linecap="round" stroke-linejoin="round"/>
</g>
<path id="&#60;&#208;&#161;&#208;&#190;&#209;&#129;&#209;&#130;&#208;&#176;&#208;&#178;&#208;&#189;&#208;&#190;&#208;&#185; &#208;&#186;&#208;&#190;&#208;&#189;&#209;&#130;&#209;&#131;&#209;&#128;&#62;" d="M28.239 23.0862V22.3822C27.8658 22.3811 27.5002 22.2763 27.1831 22.0795L27.3521 21.6149C27.6479 21.8063 27.9923 21.9089 28.3446 21.9106C28.8374 21.9106 29.1682 21.629 29.1682 21.2066C29.1682 20.7843 28.9007 20.5942 28.3868 20.383C27.6829 20.1085 27.2465 19.7917 27.2465 19.1864C27.26 18.9063 27.3768 18.6411 27.5745 18.4422C27.7721 18.2433 28.0365 18.1247 28.3164 18.1093V17.4054H28.7458V18.1093C29.0617 18.1106 29.372 18.193 29.6469 18.3487L29.4709 18.8062C29.2068 18.65 28.9048 18.5696 28.598 18.5739C28.063 18.5739 27.8941 18.8907 27.8941 19.1652C27.8941 19.4398 28.1475 19.7073 28.7529 19.9536C29.4568 20.2423 29.8229 20.6013 29.8229 21.2207C29.8172 21.5165 29.7029 21.7999 29.5016 22.0167C29.3004 22.2335 29.0263 22.3687 28.7318 22.3963V23.1002L28.239 23.0862Z" stroke="#DE593E" stroke-width="1.5" stroke-linecap="round" stroke-linejoin="round"/>
<path id="Vector_4" d="M31.7093 29.7244L31.0054 27.7393C30.8294 27.2606 33.5607 25.6838 33.8845 26.0709L35.222 27.6759M25.5006 10.6688L26.2046 12.675C26.3665 13.1608 23.5859 14.6531 23.2692 14.2519L21.981 12.5765L25.5006 10.6688ZM35.0319 12.668L33.6241 14.273C33.3002 14.6672 30.5479 13.1256 30.7238 12.6469L31.4278 10.6759L35.0319 12.668ZM38.3123 22.1359L36.9466 21.9107L36.2427 21.791C35.7359 21.7065 35.7218 18.5529 36.2427 18.4614L38.2982 18.0953L38.3123 22.1359Z" stroke="#DE593E" stroke-width="1.5" stroke-linecap="round" stroke-linejoin="round"/>
<path id="Vector_5" d="M28.4713 12.4427C28.6968 12.4427 28.8796 12.2599 28.8796 12.0344C28.8796 11.8089 28.6968 11.6261 28.4713 11.6261C28.2458 11.6261 28.063 11.8089 28.063 12.0344C28.063 12.2599 28.2458 12.4427 28.4713 12.4427Z" fill="#DE593E"/>
<path id="Vector_6" d="M21.6924 16.3886C21.8039 16.1926 21.7353 15.9433 21.5393 15.8319C21.3433 15.7205 21.094 15.789 20.9826 15.985C20.8711 16.1811 20.9397 16.4303 21.1357 16.5418C21.3317 16.6532 21.581 16.5846 21.6924 16.3886Z" fill="#DE593E"/>
<path id="Vector_7" d="M28.4713 28.8584C28.6968 28.8584 28.8796 28.6756 28.8796 28.4502C28.8796 28.2247 28.6968 28.0419 28.4713 28.0419C28.2458 28.0419 28.063 28.2247 28.063 28.4502C28.063 28.6756 28.2458 28.8584 28.4713 28.8584Z" fill="#DE593E"/>
<path id="Vector_8" d="M35.8994 24.6126C36.0137 24.4182 35.9488 24.168 35.7544 24.0536C35.56 23.9393 35.3098 24.0042 35.1955 24.1986C35.0812 24.393 35.1461 24.6432 35.3405 24.7575C35.5348 24.8718 35.7851 24.8069 35.8994 24.6126Z" fill="#DE593E"/>
<path id="Vector_9" d="M27.1829 30.1748C29.0286 30.4149 30.9046 30.1363 32.6009 29.3704C34.2972 28.6045 35.7468 27.3815 36.7872 25.8383C37.8277 24.2951 38.418 22.4926 38.492 20.6329C38.566 18.7732 38.1207 16.9296 37.2061 15.3086C36.2915 13.6876 34.9437 12.3533 33.3135 11.4551C31.6834 10.5568 29.8354 10.1302 27.9766 10.2229C26.1177 10.3156 24.3213 10.924 22.7887 11.98C21.256 13.0359 20.0476 14.4977 19.2988 16.2017" stroke="#DE593E" stroke-width="1.5" stroke-linecap="round" stroke-linejoin="round"/>
<path id="Vector_10" d="M35.8253 16.568C36.0218 16.4572 36.0912 16.2082 35.9804 16.0118C35.8697 15.8154 35.6206 15.7459 35.4242 15.8567C35.2278 15.9675 35.1584 16.2165 35.2692 16.4129C35.3799 16.6093 35.6289 16.6787 35.8253 16.568Z" fill="#DE593E"/>
<path id="Vector_11" d="M29.4848 26.0779V24.8108M27.7602 26.1412V24.8108M29.4848 15.6033V14.47M27.7602 15.6667V14.47M27.1829 26.0286C28.2146 26.2601 29.2895 26.2114 30.296 25.8875C31.3026 25.5636 32.2042 24.9764 32.9073 24.1867C33.6104 23.397 34.0895 22.4336 34.2949 21.3963C34.5002 20.3591 34.4243 19.2858 34.0751 18.2878C33.7259 17.2897 33.1161 16.4033 32.3089 15.7203C31.5017 15.0374 30.5265 14.5828 29.4844 14.4037C28.4423 14.2247 27.3712 14.3276 26.3823 14.7019C25.3934 15.0762 24.5227 15.7083 23.8604 16.5325M34.2716 19.2919H33.0397M34.349 21.0588H33.0397" stroke="#DE593E" stroke-width="1.5" stroke-linecap="round" stroke-linejoin="round"/>
</g>
</svg>
