<svg width="34" height="34" viewBox="0 0 34 34" fill="none" xmlns="http://www.w3.org/2000/svg">
<g id="Group 4">
<path id="Vector" d="M2.28673 12.7083C2.36161 12.7089 2.43544 12.7259 2.50306 12.758C2.57068 12.7902 2.63045 12.8367 2.67818 12.8944C3.85437 14.2915 6.88513 16.2589 8.47018 17.0491C8.54095 17.0837 8.6005 17.1377 8.64202 17.2046C8.68353 17.2716 8.70531 17.3489 8.70487 17.4277V21.0965C8.70487 21.5026 9.03673 21.8345 9.44285 21.8345H11.4496C11.5869 21.8344 11.7214 21.7962 11.8383 21.7242C11.9552 21.6522 12.0497 21.5491 12.1115 21.4266L13.1731 19.319C14.4538 19.6306 16.1727 19.8479 17.446 19.8479C19.0412 19.8479 20.4438 19.6921 21.7135 19.374L22.7842 21.4357C22.8468 21.556 22.9412 21.6568 23.0571 21.7271C23.173 21.7974 23.306 21.8345 23.4416 21.8345H25.4437C25.619 21.8349 25.7888 21.7733 25.923 21.6605C26.0572 21.5478 26.1473 21.3912 26.1771 21.2185L26.9729 16.6329C27.0021 16.4731 27.0773 16.3253 27.1892 16.2075C28.6377 14.6546 29.4261 12.5992 29.504 10.223L30.3566 9.63354C30.4352 9.86922 30.5732 10.0807 30.7571 10.2477C30.9411 10.4146 31.165 10.5315 31.4072 10.587C31.6493 10.6447 31.9023 10.6395 32.1419 10.5718C32.3815 10.5041 32.5997 10.3761 32.7759 10.2001L33.2837 9.69404C33.3524 9.62559 33.4068 9.54425 33.4439 9.4547C33.481 9.36515 33.5001 9.26916 33.5 9.17222C33.4999 9.07529 33.4807 8.97933 33.4434 8.88985C33.4061 8.80037 33.3516 8.71912 33.2828 8.65079C33.1433 8.51212 32.9547 8.43428 32.758 8.43428C32.5613 8.43428 32.3726 8.51212 32.2331 8.65079L31.7638 9.16691C31.6935 8.95408 31.5747 8.76052 31.4167 8.60156C31.2587 8.44261 31.0658 8.32261 30.8534 8.25109C30.641 8.17734 30.4144 8.15386 30.1914 8.18249C29.9684 8.21112 29.755 8.29109 29.5682 8.4161L29.383 8.54444C28.5222 4.0038 23.2316 0.498169 16.8318 0.498169C14.5858 0.498169 12.4681 0.968459 10.3752 1.94754C9.06423 1.0583 7.56535 0.683352 6.68253 0.672351C5.99039 0.665933 5.56777 0.828197 5.31291 1.16464C4.86737 1.74861 5.1479 2.6131 6.06739 4.28341C6.12168 4.38286 6.14116 4.49762 6.12272 4.60941C6.10428 4.72121 6.04899 4.82363 5.96563 4.90038C5.40828 5.4248 4.93984 6.03629 4.5786 6.71095C4.55345 6.76183 4.51641 6.8059 4.47061 6.83941C4.4248 6.87292 4.37159 6.8949 4.31549 6.90347C3.79845 6.97039 2.98988 6.96031 2.40591 6.95481L2.02363 6.95114C1.82194 6.94839 1.35715 7.02081 1.01338 7.52319C0.37257 8.45644 0.323983 10.7162 0.912533 12.1729C1.09772 12.6313 1.88428 12.7028 2.28765 12.7092L2.28673 12.7083ZM2.19414 8.42343L2.38941 8.42527C3.48034 8.43902 4.60977 8.45094 5.28632 8.16583C5.45684 8.0934 5.65027 7.89172 5.7282 7.72304C6.14708 6.79976 6.81142 6.00921 7.64878 5.43759C7.80348 5.33362 7.91293 5.17477 7.95496 4.99318C7.997 4.81159 7.9685 4.6208 7.87521 4.45943C7.63961 4.05331 7.04648 3.0293 6.75587 2.35091C6.74633 2.32809 6.74283 2.3032 6.74571 2.27864C6.74859 2.25408 6.75775 2.23067 6.77231 2.21068C6.78686 2.19069 6.80633 2.17479 6.82882 2.1645C6.85131 2.15422 6.87607 2.14991 6.90071 2.15198C7.72945 2.23907 9.22008 2.69652 10.2835 3.77462C10.5677 4.06156 11.9107 3.62794 11.941 3.44734C11.9712 3.26491 11.7191 3.15398 11.6 3.0183C13.2542 2.31922 15.0323 1.96067 16.8281 1.96405C22.9025 1.96405 28.0335 5.56869 28.0335 9.83522C28.0335 12.1803 27.2891 14.0798 25.8196 15.4815C25.7008 15.5925 25.6208 15.7387 25.5913 15.8986C25.5913 15.8986 25.2613 19.3272 24.8185 20.354C24.7268 20.5657 24.0292 20.5437 23.8972 20.354C23.6194 19.9579 22.7567 18.1593 22.7567 18.1593C22.6744 18.0039 22.54 17.8824 22.3771 17.816C22.2142 17.7496 22.0332 17.7426 21.8657 17.7962C20.5859 18.1813 19.1402 18.3683 17.447 18.3683C16.1067 18.3683 14.1558 18.0914 13.0007 17.7385C12.8354 17.685 12.6565 17.692 12.4958 17.7581C12.3351 17.8243 12.2032 17.9453 12.1234 18.0997C12.1234 18.0997 11.4872 19.9689 10.9885 20.3549C10.8299 20.4768 10.3312 20.4961 10.1909 20.3549C9.93514 20.1 10.1909 16.6604 10.1909 16.6604C10.1909 16.301 9.95623 16.0003 9.60145 15.938C8.82038 15.718 4.24582 12.8486 3.63802 11.698C3.36299 11.1755 2.78086 11.2076 2.26748 11.2369C2.23355 11.2389 2.19963 11.241 2.16572 11.2433C1.87237 10.1818 1.98329 8.84422 2.19414 8.42343Z" fill="#E8CE3A"/>
<path id="Vector_2" d="M18.262 4.54829C22.0958 4.54829 25.5061 7.46904 25.5061 9.77007C25.5061 10.178 25.8389 10.508 26.2486 10.508C26.6584 10.508 26.9894 10.178 26.9894 9.77007C26.9894 6.39003 22.666 3.07324 18.262 3.07324C18.1648 3.073 18.0686 3.0919 17.9787 3.12886C17.8889 3.16581 17.8072 3.22011 17.7383 3.28863C17.6694 3.35716 17.6147 3.43858 17.5773 3.52825C17.5399 3.61792 17.5206 3.71407 17.5203 3.81122C17.5203 4.21826 17.8522 4.54829 18.2629 4.54829H18.262ZM8.14842 8.58655H9.47954C9.88932 8.58655 10.2212 8.25652 10.2212 7.84857C10.2209 7.75134 10.2015 7.65511 10.1641 7.56538C10.1266 7.47566 10.0718 7.3942 10.0029 7.32566C9.93391 7.25712 9.85211 7.20284 9.76216 7.16594C9.6722 7.12904 9.57585 7.11023 9.47862 7.11059H8.14934C8.05211 7.11023 7.95576 7.12904 7.86581 7.16594C7.77585 7.20284 7.69405 7.25712 7.62508 7.32566C7.55612 7.3942 7.50134 7.47566 7.46388 7.56538C7.42642 7.65511 7.40702 7.75134 7.40678 7.84857C7.40678 8.25561 7.73864 8.58655 8.14934 8.58655H8.14842ZM33.4854 22.0224C33.4818 21.982 33.4827 21.9417 33.4735 21.9023L33.4726 21.8913C33.468 21.8739 33.4552 21.8619 33.4497 21.8454C33.4371 21.8107 33.4218 21.7769 33.4038 21.7446C33.3892 21.7153 33.3846 21.6813 33.3644 21.6529C33.237 21.4677 32.3404 19.8543 29.3491 19.3666C29.2528 19.349 29.1539 19.3507 29.0583 19.3717C28.9627 19.3927 28.8722 19.4325 28.7921 19.4888C28.712 19.5451 28.6439 19.6168 28.5918 19.6996C28.5396 19.7825 28.5045 19.8749 28.4885 19.9715C28.4724 20.0681 28.4757 20.1669 28.4982 20.2622C28.5207 20.3575 28.562 20.4473 28.6196 20.5265C28.6771 20.6057 28.7499 20.6726 28.8336 20.7234C28.9173 20.7742 29.0102 20.8078 29.1071 20.8224C30.143 20.9929 30.8443 21.3513 31.3228 21.7033L17.1188 25.5097L2.66354 21.6364C3.14208 21.2816 3.84614 20.9177 4.89031 20.7472C4.98596 20.7313 5.07754 20.6967 5.15983 20.6454C5.24212 20.5941 5.31349 20.5272 5.36989 20.4483C5.42629 20.3694 5.4666 20.2802 5.48852 20.1858C5.51044 20.0913 5.51355 19.9935 5.49765 19.8978C5.48176 19.8022 5.44719 19.7106 5.3959 19.6283C5.34462 19.546 5.27763 19.4746 5.19876 19.4182C5.11989 19.3618 5.03068 19.3215 4.93623 19.2996C4.84178 19.2777 4.74394 19.2746 4.64829 19.2905C1.6542 19.7828 0.739287 21.4586 0.645779 21.5814C0.627444 21.6043 0.62286 21.6337 0.609109 21.6584C0.584992 21.6973 0.564728 21.7385 0.548604 21.7813C0.543104 21.7978 0.530269 21.8106 0.525685 21.8271V21.8317C0.514684 21.8702 0.518351 21.9105 0.514684 21.95C0.511934 21.9738 0.500016 21.994 0.500016 22.0187C0.497266 23.392 0.839212 24.1731 1.40484 25.2126C1.21783 25.506 1.10507 25.8516 1.10507 26.2238C1.10677 26.7265 1.30783 27.2079 1.66412 27.5625C2.02041 27.9171 2.50282 28.1158 3.00548 28.1151C3.24842 28.1151 3.47852 28.0656 3.69212 27.9821C7.07858 30.847 11.7476 31.9196 15.2303 32.3037C15.3707 32.6569 15.6139 32.9599 15.9283 33.1735C16.2427 33.387 16.614 33.5014 16.9941 33.5019C17.3469 33.501 17.6926 33.4019 17.9922 33.2155C18.2917 33.0291 18.5334 32.7628 18.6901 32.4467C22.2672 32.0571 27.0398 30.9506 30.4125 27.9812C30.6995 28.0942 31.0097 28.1355 31.3163 28.1015C31.6228 28.0676 31.9165 27.9594 32.1718 27.7864C32.4272 27.6134 32.6365 27.3808 32.7817 27.1087C32.9269 26.8366 33.0035 26.5332 33.0051 26.2247C33.0051 25.8241 32.8767 25.4538 32.6631 25.1476C33.1857 24.1703 33.5001 23.3993 33.4974 22.0829C33.4974 22.0609 33.4873 22.0435 33.4854 22.0224V22.0224ZM31.1046 24.3326C30.602 24.3318 30.1196 24.5306 29.7633 24.8851C29.407 25.2397 29.2059 25.7212 29.2042 26.2238C29.2042 26.4787 29.2565 26.7216 29.3491 26.9435C26.3422 29.5434 22.0701 30.5664 18.768 30.9506C18.6791 30.7139 18.5439 30.4974 18.3703 30.3137C18.1966 30.13 17.9881 29.9828 17.7568 29.8807V27.0416C17.7568 26.9829 17.7357 26.9315 17.7229 26.8765L31.905 23.0757C31.8124 23.4901 31.6455 23.8889 31.3971 24.3628C31.3002 24.3454 31.2021 24.3356 31.1037 24.3335L31.1046 24.3326ZM15.2725 30.8231C12.0519 30.4546 7.81931 29.4709 4.76105 26.9435C4.85272 26.7216 4.9059 26.4787 4.9059 26.2238C4.90479 25.9438 4.84174 25.6676 4.72128 25.4148C4.60082 25.1621 4.42593 24.9392 4.20914 24.762C3.99236 24.5848 3.73906 24.4578 3.4674 24.39C3.19574 24.3223 2.91246 24.3155 2.63787 24.3702C2.36834 23.8623 2.1905 23.4461 2.0924 23.0115L16.3175 26.8234C16.2916 26.8934 16.2767 26.967 16.2735 27.0416V29.8633C15.8312 30.0457 15.4737 30.3881 15.2725 30.8222V30.8231ZM2.58836 26.2229C2.58836 26.1123 2.63231 26.0062 2.71053 25.928C2.78876 25.8497 2.89485 25.8058 3.00548 25.8058C3.11611 25.8058 3.2222 25.8497 3.30043 25.928C3.37865 26.0062 3.4226 26.1123 3.4226 26.2229C3.4226 26.3335 3.37865 26.4396 3.30043 26.5178C3.2222 26.5961 3.11611 26.64 3.00548 26.64C2.89485 26.64 2.78876 26.5961 2.71053 26.5178C2.63231 26.4396 2.58836 26.3335 2.58836 26.2229V26.2229ZM16.9941 32.0259C16.7649 32.0259 16.577 31.8389 16.577 31.6097C16.577 31.4991 16.6209 31.393 16.6992 31.3147C16.7774 31.2365 16.8835 31.1926 16.9941 31.1926C17.1047 31.1926 17.2108 31.2365 17.289 31.3147C17.3673 31.393 17.4112 31.4991 17.4112 31.6097C17.4112 31.8389 17.2242 32.025 16.9941 32.025V32.0259ZM31.1046 26.6382C30.8745 26.6382 30.6875 26.4521 30.6875 26.2229C30.6875 26.1123 30.7315 26.0062 30.8097 25.928C30.8879 25.8497 30.994 25.8058 31.1046 25.8058C31.2153 25.8058 31.3214 25.8497 31.3996 25.928C31.4778 26.0062 31.5218 26.1123 31.5218 26.2229C31.5218 26.4521 31.3348 26.6382 31.1046 26.6382Z" fill="#E8CE3A"/>
</g>
</svg>
