<svg width="34" height="34" viewBox="0 0 34 34" fill="none" xmlns="http://www.w3.org/2000/svg">
<g id="Group 3">
<path id="Vector" d="M24.7482 9.6144C24.7369 9.60307 24.7331 9.58796 24.7218 9.57662C24.7152 9.56907 24.7057 9.56718 24.6982 9.56057C23.7064 8.52861 22.5173 7.70654 21.2015 7.14321C19.8857 6.57987 18.4701 6.28677 17.0388 6.28131C15.6076 6.27584 14.1898 6.55814 12.8697 7.11141C11.5497 7.66469 10.3544 8.47766 9.35472 9.50201C9.34999 9.50674 9.34244 9.50862 9.33772 9.51335C9.32922 9.52185 9.32733 9.53224 9.31883 9.54168C7.37127 11.536 6.28107 14.2131 6.28125 17.0006C6.28143 19.7882 7.37196 22.4651 9.31977 24.4592C9.32733 24.4677 9.32922 24.4781 9.33866 24.4866C9.34244 24.4913 9.34905 24.4922 9.35472 24.497C10.3499 25.5165 11.5389 26.3267 12.8519 26.8798C14.1649 27.4329 15.5753 27.7177 17 27.7175C19.8242 27.7188 22.534 26.6016 24.5367 24.6103C24.599 24.5772 24.6632 24.5442 24.7161 24.4922C24.7905 24.419 24.8484 24.3308 24.8861 24.2335C26.7054 22.2639 27.716 19.6812 27.7166 17C27.7166 14.1373 26.5814 11.5392 24.7473 9.6144H24.7482ZM24.1419 22.8413L22.4438 21.1036C22.7724 20.6701 23.0577 20.1988 23.2787 19.6869C23.5507 19.0579 23.7226 18.4043 23.7972 17.7432H26.1942C26.0464 19.6122 25.3303 21.3913 24.1419 22.8413ZM7.80583 17.7432H10.3303C10.3964 18.3382 10.5362 18.9266 10.7619 19.4971C10.9952 20.0864 11.3135 20.6153 11.679 21.096L9.89211 22.8829C8.68371 21.4256 7.95506 19.6305 7.80583 17.7432ZM9.89116 11.118L11.6743 12.902C11.3416 13.3373 11.0625 13.811 10.8432 14.313C10.5754 14.9317 10.401 15.5868 10.3256 16.2567H7.80583C7.95498 14.3699 8.68328 12.5751 9.89116 11.118ZM22.1312 17.7432H22.2936C22.163 18.6665 21.7906 19.5389 21.2143 20.272C20.6379 21.0051 19.8781 21.5728 19.0117 21.9177C18.6034 22.0734 18.1773 22.1778 17.7433 22.2284V22.0716C17.7433 21.8745 17.665 21.6854 17.5256 21.546C17.3862 21.4067 17.1971 21.3283 17 21.3283C16.8029 21.3283 16.6138 21.4067 16.4744 21.546C16.335 21.6854 16.2567 21.8745 16.2567 22.0716V22.2076C15.8125 22.1448 15.378 22.0258 14.9638 21.8535C14.3252 21.5797 13.7471 21.1821 13.2631 20.6836C12.779 20.1851 12.3986 19.5957 12.1437 18.9493C11.9948 18.5607 11.8924 18.1559 11.8386 17.7432H12.2334C12.4305 17.7432 12.6196 17.6649 12.759 17.5255C12.8984 17.3861 12.9767 17.1971 12.9767 17C12.9767 16.8028 12.8984 16.6138 12.759 16.4744C12.6196 16.335 12.4305 16.2567 12.2334 16.2567H11.8462C11.9132 15.7977 12.018 15.3406 12.2079 14.9033C12.4814 14.2647 12.8788 13.6866 13.3771 13.2026C13.8755 12.7185 14.4648 12.338 15.1111 12.0832C15.4806 11.9412 15.8649 11.8411 16.2567 11.7847V11.9595C16.2567 12.1566 16.335 12.3456 16.4744 12.485C16.6138 12.6244 16.8029 12.7027 17 12.7027C17.1971 12.7027 17.3862 12.6244 17.5256 12.485C17.665 12.3456 17.7433 12.1566 17.7433 11.9595V11.7592C18.2249 11.8235 18.7 11.9481 19.158 12.1465C19.9908 12.5029 20.7172 13.0688 21.2667 13.789C21.8161 14.5092 22.1699 15.3593 22.2936 16.2567H22.1321C21.935 16.2567 21.7459 16.335 21.6065 16.4744C21.4671 16.6138 21.3888 16.8028 21.3888 17C21.3888 17.1971 21.4671 17.3861 21.6065 17.5255C21.7459 17.6649 21.935 17.7432 22.1321 17.7432H22.1312ZM21.4285 11.8187C20.3838 10.9421 19.1 10.3993 17.7433 10.2604V7.80485C19.7432 7.96597 21.6354 8.7777 23.1304 10.1159L21.4285 11.8178V11.8187ZM16.2567 10.2774C15.6764 10.3453 15.1072 10.4878 14.5633 10.7015C13.8739 10.9753 13.2496 11.3569 12.6971 11.8216L10.9338 10.0583C12.4194 8.75403 14.2862 7.96404 16.2567 7.80579V10.2774ZM12.7056 22.1717C13.7148 23.0195 14.9485 23.5559 16.2567 23.7159V26.1941C14.2862 26.0359 12.4194 25.2459 10.9338 23.9416L12.7056 22.1717ZM17.7433 23.7405C19.0977 23.6053 20.3794 23.0626 21.4191 22.184L23.1039 23.9067C21.6129 25.2311 19.7312 26.034 17.7433 26.1941V23.7405ZM23.7924 16.2567C23.7274 15.6554 23.5823 15.0656 23.3608 14.5028C23.1319 13.9287 22.8256 13.3885 22.4504 12.8973L24.1627 11.1869C25.338 12.6318 26.0462 14.3999 26.1932 16.2567H23.7924ZM14.7031 4.87329C14.8029 4.87685 14.9024 4.86027 14.9956 4.82454C15.0888 4.78882 15.1739 4.73467 15.2457 4.66535C15.3176 4.59602 15.3747 4.51293 15.4137 4.42103C15.4528 4.32914 15.4729 4.23032 15.4729 4.13048C15.4729 4.03065 15.4528 3.93183 15.4137 3.83994C15.3747 3.74804 15.3176 3.66495 15.2457 3.59562C15.1739 3.5263 15.0888 3.47215 14.9956 3.43643C14.9024 3.4007 14.8029 3.38412 14.7031 3.38768C14.506 3.38768 14.3169 3.46599 14.1775 3.60538C14.0381 3.74477 13.9598 3.93383 13.9598 4.13096C13.9598 4.32809 14.0381 4.51714 14.1775 4.65653C14.3169 4.79593 14.506 4.87423 14.7031 4.87423V4.87329Z" fill="#6EF770"/>
<path id="Vector_2" d="M17 0C7.62544 0 0 7.62544 0 17C0 26.3746 7.62544 34 17 34C26.3746 34 34 26.3746 34 17C34 7.62544 26.3746 0 17 0ZM17 32.5144C8.44522 32.5144 1.48561 25.5538 1.48561 17C1.48561 8.44522 8.44617 1.48561 17 1.48561C25.5538 1.48561 32.5144 8.44617 32.5144 17C32.5144 25.5538 25.5538 32.5144 17 32.5144Z" fill="#6EF770"/>
<path id="Vector_3" d="M17.2494 29.3175C10.0811 29.3175 4.67699 23.9398 4.67699 16.8093C4.67699 16.6121 4.59868 16.4231 4.45928 16.2837C4.31989 16.1443 4.13084 16.066 3.93371 16.066C3.73658 16.066 3.54752 16.1443 3.40813 16.2837C3.26874 16.4231 3.19043 16.6121 3.19043 16.8093C3.19043 24.787 9.23487 30.8031 17.2494 30.8031C17.4418 30.7962 17.6241 30.715 17.7578 30.5764C17.8915 30.4379 17.9662 30.2528 17.9662 30.0603C17.9662 29.8678 17.8915 29.6827 17.7578 29.5442C17.6241 29.4056 17.4418 29.3244 17.2494 29.3175ZM17.0001 3.21777C16.8031 3.21777 16.6142 3.29603 16.4749 3.43534C16.3356 3.57464 16.2573 3.76357 16.2573 3.96058C16.2573 4.15758 16.3356 4.34652 16.4749 4.48582C16.6142 4.62512 16.8031 4.70338 17.0001 4.70338C24.1665 4.70338 29.5716 10.0801 29.5716 17.2107C29.5716 17.4078 29.6499 17.5968 29.7893 17.7362C29.9287 17.8756 30.1177 17.9539 30.3149 17.9539C30.512 17.9539 30.7011 17.8756 30.8404 17.7362C30.9798 17.5968 31.0581 17.4078 31.0581 17.2107C31.0581 9.23294 25.0137 3.21777 17.0001 3.21777ZM18.8578 16.2568H17.7434V15.2358C17.7434 15.0387 17.6651 14.8496 17.5257 14.7103C17.3863 14.5709 17.1972 14.4926 17.0001 14.4926C16.803 14.4926 16.6139 14.5709 16.4745 14.7103C16.3351 14.8496 16.2568 15.0387 16.2568 15.2358V16.2568H15.1424C14.9452 16.2568 14.7562 16.3351 14.6168 16.4745C14.4774 16.6139 14.3991 16.8029 14.3991 17.0001C14.3991 17.1972 14.4774 17.3862 14.6168 17.5256C14.7562 17.665 14.9452 17.7433 15.1424 17.7433H16.2568V18.9522C16.2568 19.1493 16.3351 19.3384 16.4745 19.4778C16.6139 19.6172 16.803 19.6955 17.0001 19.6955C17.1972 19.6955 17.3863 19.6172 17.5257 19.4778C17.6651 19.3384 17.7434 19.1493 17.7434 18.9522V17.7433H18.8578C19.0549 17.7433 19.244 17.665 19.3834 17.5256C19.5228 17.3862 19.6011 17.1972 19.6011 17.0001C19.6011 16.8029 19.5228 16.6139 19.3834 16.4745C19.244 16.3351 19.0549 16.2568 18.8578 16.2568Z" fill="#6EF770"/>
</g>
</svg>
