<svg width="44" height="26" viewBox="0 0 44 26" fill="none" xmlns="http://www.w3.org/2000/svg">
<g id="Group 1">
<g id="Group" style="mix-blend-mode:multiply" opacity="0.75">
<g id="Vector" style="mix-blend-mode:multiply" opacity="0.75">
<path d="M35.7895 24.0715H8.21051C6.29873 24.0696 4.46577 23.279 3.11394 21.873C1.7621 20.4671 1.00184 18.5609 1 16.5726M8.21051 1.20667H35.7895C37.7013 1.20858 39.5342 1.99925 40.8861 3.40516C42.2379 4.81107 42.9982 6.71734 43 8.70559" stroke="black" stroke-width="1.5" stroke-linecap="round" stroke-linejoin="round"/>
</g>
<g id="Vector_2" style="mix-blend-mode:multiply" opacity="0.75">
<path d="M34.6168 4.7937H9.3904C6.66146 4.7937 4.44922 7.09443 4.44922 9.93253V15.3456C4.44922 18.1837 6.66146 20.4844 9.3904 20.4844H34.6168C37.3457 20.4844 39.558 18.1837 39.558 15.3456V9.93253C39.558 7.09443 37.3457 4.7937 34.6168 4.7937Z" stroke="black" stroke-width="1.5" stroke-linecap="round" stroke-linejoin="round"/>
</g>
<g id="Vector_3" style="mix-blend-mode:multiply" opacity="0.75">
<path d="M16.1218 5.58045V20.4845M27.8779 5.58044V20.4845" stroke="black" stroke-width="1.5" stroke-linecap="round" stroke-linejoin="round"/>
</g>
<g id="&#60;&#208;&#161;&#208;&#190;&#209;&#129;&#209;&#130;&#208;&#176;&#208;&#178;&#208;&#189;&#208;&#190;&#208;&#185; &#208;&#186;&#208;&#190;&#208;&#189;&#209;&#130;&#209;&#131;&#209;&#128;&#62;" style="mix-blend-mode:multiply" opacity="0.75">
<path d="M14.3106 9.83152C14.1897 10.1279 14.053 10.4171 13.9011 10.6976L13.6721 11.109L13.4292 11.5204L13.2557 11.8019L13.0822 12.0834L12.6936 12.7113C12.4754 13.0714 12.2784 13.445 12.1037 13.83L10.7851 16.717H7.93284C7.83127 16.7187 7.73021 16.7016 7.63442 16.6664C7.58936 16.6503 7.551 16.6185 7.52574 16.5765C7.50047 16.5345 7.48985 16.4847 7.49563 16.4355V16.3561C7.49759 16.3393 7.49759 16.3223 7.49563 16.3056C7.68819 15.4128 8.05425 14.5703 8.5713 13.83C9.41797 12.7546 10.5769 12.0761 11.5554 11.1523C11.7359 10.9863 11.9094 10.8203 12.0759 10.6399C12.0759 10.6399 12.2911 10.3945 12.2217 10.4017C12.0065 10.4017 7.36377 10.5677 7.36377 10.5677C7.36377 10.5677 7.74546 9.18917 7.8218 9.02316C7.85575 8.95565 7.90596 8.89845 7.96754 8.85716C8.01751 8.82465 8.07515 8.80717 8.13409 8.80664H8.16879C8.42538 8.82112 8.68253 8.82112 8.93912 8.80664H14.491V9.13143C14.463 9.37248 14.4022 9.60819 14.3106 9.83152V9.83152ZM25.4282 9.83152C25.3073 10.1279 25.1706 10.4171 25.0188 10.6976L24.7897 11.109L24.5468 11.5204L24.3734 11.8019L24.1999 12.0834L23.8112 12.7113C23.6022 13.0745 23.4145 13.4505 23.2491 13.8372L21.9305 16.7242H19.0505C18.9489 16.7259 18.8479 16.7088 18.7521 16.6737C18.707 16.6575 18.6686 16.6258 18.6434 16.5837C18.6181 16.5417 18.6075 16.4919 18.6133 16.4427V16.3561C18.6152 16.3393 18.6152 16.3223 18.6133 16.3056C18.8058 15.4128 19.1719 14.5703 19.689 13.83C20.5356 12.7546 21.6946 12.0761 22.6731 11.1523C22.8535 10.9863 23.027 10.8203 23.1936 10.6399C23.1936 10.6399 23.4087 10.3945 23.3393 10.4017C23.1242 10.4017 18.4814 10.5677 18.4814 10.5677C18.4814 10.5677 18.8631 9.18917 18.9394 9.02316C18.9734 8.95565 19.0236 8.89845 19.0852 8.85716C19.1352 8.82465 19.1928 8.80717 19.2517 8.80664H19.2864C19.543 8.82112 19.8002 8.82112 20.0568 8.80664H25.6086V9.13143C25.5806 9.37248 25.5199 9.60819 25.4282 9.83152V9.83152ZM37.4689 9.83152C37.348 10.1279 37.2113 10.4171 37.0594 10.6976L36.8304 11.109L36.5875 11.5204L36.414 11.8019L36.2405 12.0834L35.8519 12.7113C35.6337 13.0714 35.4367 13.445 35.262 13.83L33.9434 16.717H31.0981C30.9965 16.7187 30.8954 16.7016 30.7997 16.6664C30.7546 16.6503 30.7162 16.6185 30.691 16.5765C30.6657 16.5345 30.6551 16.4847 30.6609 16.4355V16.3561C30.6628 16.3393 30.6628 16.3223 30.6609 16.3056C30.8536 15.4128 31.2197 14.5704 31.7365 13.83C32.5832 12.7546 33.7422 12.0761 34.7207 11.1523C34.9011 10.9863 35.0746 10.8203 35.2412 10.6399C35.2412 10.6399 35.4563 10.3945 35.3869 10.4017C35.1718 10.4017 30.529 10.5677 30.529 10.5677C30.529 10.5677 30.9107 9.18917 30.987 9.02316C31.021 8.95565 31.0712 8.89845 31.1328 8.85716C31.1827 8.82465 31.2404 8.80717 31.2993 8.80664H31.334C31.5906 8.82112 31.8478 8.82112 32.1043 8.80664H37.6562V9.13143C37.626 9.37284 37.5629 9.60857 37.4689 9.83152V9.83152Z" stroke="black" stroke-width="1.5" stroke-linecap="round" stroke-linejoin="round"/>
</g>
</g>
<path id="Vector_4" d="M35.7895 24.7933H8.21051C6.29873 24.7914 4.46577 24.0008 3.11394 22.5948C1.7621 21.1889 1.00184 19.2827 1 17.2944M8.21051 1.92847H35.7895C37.7013 1.93038 39.5342 2.72105 40.8861 4.12696C42.2379 5.53287 42.9982 7.43914 43 9.4274" stroke="#17EADA" stroke-width="1.5" stroke-linecap="round" stroke-linejoin="round"/>
<path id="Vector_5" d="M34.6168 5.5155H9.3904C6.66146 5.5155 4.44922 7.81623 4.44922 10.6543V16.0674C4.44922 18.9055 6.66146 21.2062 9.3904 21.2062H34.6168C37.3457 21.2062 39.558 18.9055 39.558 16.0674V10.6543C39.558 7.81623 37.3457 5.5155 34.6168 5.5155Z" stroke="#17EADA" stroke-width="1.5" stroke-linecap="round" stroke-linejoin="round"/>
<path id="Vector_6" d="M27.8782 5.5155V21.2062M16.1221 5.5155V21.2062V5.5155Z" stroke="#17EADA" stroke-width="1.5" stroke-linecap="round" stroke-linejoin="round"/>
<path id="&#60;&#208;&#161;&#208;&#190;&#209;&#129;&#209;&#130;&#208;&#176;&#208;&#178;&#208;&#189;&#208;&#190;&#208;&#185; &#208;&#186;&#208;&#190;&#208;&#189;&#209;&#130;&#209;&#131;&#209;&#128;&#62;_2" d="M14.3106 10.5532C14.1897 10.8496 14.053 11.1387 13.9011 11.4193L13.6721 11.8307L13.4292 12.2421L13.2557 12.5236L13.0822 12.805L12.6936 13.433C12.4754 13.7931 12.2784 14.1667 12.1037 14.5517L10.7851 17.4386H7.93284C7.83127 17.4404 7.73021 17.4233 7.63442 17.3881C7.58936 17.372 7.551 17.3402 7.52574 17.2982C7.50047 17.2561 7.48985 17.2064 7.49563 17.1572V17.0778C7.49759 17.061 7.49759 17.044 7.49563 17.0272C7.68819 16.1344 8.05425 15.292 8.5713 14.5517C9.41797 13.4763 10.5769 12.7978 11.5554 11.874C11.7359 11.708 11.9094 11.542 12.0759 11.3616C12.0759 11.3616 12.2911 11.1162 12.2217 11.1234C12.0065 11.1234 7.36377 11.2894 7.36377 11.2894C7.36377 11.2894 7.74546 9.91085 7.8218 9.74484C7.85575 9.67733 7.90596 9.62013 7.96754 9.57884C8.01751 9.54633 8.07515 9.52885 8.13409 9.52832H8.16879C8.42538 9.5428 8.68253 9.5428 8.93912 9.52832H14.491V9.85311C14.463 10.0942 14.4022 10.3299 14.3106 10.5532V10.5532ZM25.4282 10.5532C25.3073 10.8496 25.1706 11.1387 25.0188 11.4193L24.7897 11.8307L24.5468 12.2421L24.3734 12.5236L24.1999 12.805L23.8112 13.433C23.6022 13.7962 23.4145 14.1722 23.2491 14.5589L21.9305 17.4459H19.0505C18.9489 17.4476 18.8479 17.4305 18.7521 17.3953C18.707 17.3792 18.6686 17.3474 18.6434 17.3054C18.6181 17.2634 18.6075 17.2136 18.6133 17.1644V17.0778C18.6152 17.061 18.6152 17.044 18.6133 17.0272C18.8058 16.1344 19.1719 15.292 19.689 14.5517C20.5356 13.4763 21.6946 12.7978 22.6731 11.874C22.8535 11.708 23.027 11.542 23.1936 11.3616C23.1936 11.3616 23.4087 11.1162 23.3393 11.1234C23.1242 11.1234 18.4814 11.2894 18.4814 11.2894C18.4814 11.2894 18.8631 9.91085 18.9394 9.74484C18.9734 9.67733 19.0236 9.62013 19.0852 9.57884C19.1352 9.54633 19.1928 9.52885 19.2517 9.52832H19.2864C19.543 9.5428 19.8002 9.5428 20.0568 9.52832H25.6086V9.85311C25.5806 10.0942 25.5199 10.3299 25.4282 10.5532V10.5532ZM37.4689 10.5532C37.348 10.8496 37.2113 11.1387 37.0594 11.4193L36.8304 11.8307L36.5875 12.2421L36.414 12.5236L36.2405 12.805L35.8519 13.433C35.6337 13.7931 35.4367 14.1667 35.262 14.5517L33.9434 17.4386H31.0981C30.9965 17.4404 30.8954 17.4233 30.7997 17.3881C30.7546 17.372 30.7162 17.3402 30.691 17.2982C30.6657 17.2561 30.6551 17.2064 30.6609 17.1572V17.0778C30.6628 17.061 30.6628 17.044 30.6609 17.0272C30.8536 16.1345 31.2197 15.2921 31.7365 14.5517C32.5832 13.4763 33.7422 12.7978 34.7207 11.874C34.9011 11.708 35.0746 11.542 35.2412 11.3616C35.2412 11.3616 35.4563 11.1162 35.3869 11.1234C35.1718 11.1234 30.529 11.2894 30.529 11.2894C30.529 11.2894 30.9107 9.91085 30.987 9.74484C31.021 9.67733 31.0712 9.62013 31.1328 9.57884C31.1827 9.54633 31.2404 9.52885 31.2993 9.52832H31.334C31.5906 9.5428 31.8478 9.5428 32.1043 9.52832H37.6562V9.85311C37.626 10.0945 37.5629 10.3302 37.4689 10.5532V10.5532Z" stroke="#17EADA" stroke-width="1.5" stroke-linecap="round" stroke-linejoin="round"/>
</g>
</svg>
