<svg width="25" height="27" viewBox="0 0 25 27" fill="none" xmlns="http://www.w3.org/2000/svg">
<g id="Flag">
<path id="Vector" d="M0 27L12.5 21.1091L25 27C25 18 25 8.99998 25 0H0C0 8.99998 0 18 0 27Z" fill="#A91FFF"/>
<path id="Vector_2" d="M10.912 6.67275C10.912 6.46365 10.912 6.3091 10.8159 6.1909C10.7198 6.06365 10.5371 6 10.2583 6C9.94115 6 9.79695 6.0818 9.71045 6.1909C9.6143 6.3091 9.6143 6.46365 9.6143 6.67275V8.2909H6.79775V6.67275C6.79775 6.46365 6.79775 6.3091 6.7016 6.1909C6.6055 6.06365 6.43245 6 6.15365 6C5.8653 6 5.69225 6.06365 5.59615 6.1909C5.5 6.3091 5.5 6.46365 5.5 6.67275V11.3182C5.5 11.5364 5.5 11.6909 5.59615 11.8091C5.69225 11.9364 5.8653 12 6.15365 12C6.43245 12 6.6055 11.9364 6.7016 11.8091C6.79775 11.6909 6.79775 11.5364 6.79775 11.3182V9.37275H9.6143V11.3182C9.6143 11.5364 9.6143 11.6909 9.71045 11.8091C9.79695 11.9182 9.94115 12 10.2583 12C10.5371 12 10.7198 11.9364 10.8159 11.8091C10.912 11.6909 10.912 11.5364 10.912 11.3182V6.67275Z" fill="white"/>
<path id="Vector_3" d="M13.5946 6.67275C13.5946 6.47275 13.5946 6.3091 13.4985 6.1909C13.4024 6.06365 13.2293 6 12.9506 6C12.6622 6 12.4891 6.06365 12.393 6.1909C12.2969 6.3091 12.2969 6.47275 12.2969 6.67275V11.3182C12.2969 11.5364 12.2969 11.6909 12.393 11.8091C12.4891 11.9364 12.6622 12 12.9506 12C13.2293 12 13.4024 11.9364 13.4985 11.8091C13.5946 11.6909 13.5946 11.5364 13.5946 11.3182V6.67275Z" fill="white"/>
<path id="Vector_4" d="M17.5579 7.16372H18.8268C19.0287 7.16372 19.1825 7.16372 19.3075 7.07282C19.4324 6.99097 19.4997 6.85462 19.4997 6.60917C19.4997 6.37282 19.4324 6.24552 19.3075 6.16372C19.1825 6.07282 19.0287 6.06372 18.8268 6.06372H15.0009C14.7894 6.06372 14.6356 6.07282 14.5107 6.16372C14.3857 6.24552 14.3184 6.37282 14.3184 6.60917C14.3184 6.85462 14.3857 6.99097 14.5107 7.07282C14.6356 7.16372 14.7894 7.16372 15.0009 7.16372H16.2602V11.3183C16.2602 11.5364 16.2602 11.691 16.3563 11.8092C16.4524 11.9364 16.6447 12.0001 16.9139 12.0001C17.1734 12.0001 17.3657 11.9364 17.4618 11.8092C17.5579 11.691 17.5579 11.5364 17.5579 11.3183V7.16372Z" fill="white"/>
</g>
</svg>
