<svg width="34" height="42" viewBox="0 0 34 42" fill="none" xmlns="http://www.w3.org/2000/svg">
<g id="Flags/On the Card" filter="url(#filter0_d_104_3163)">
<path id="Vector" fill-rule="evenodd" clip-rule="evenodd" d="M16.9999 31.0417L29.2777 35.2917V2.59619L4.72217 2.70776V35.2917L16.9999 31.0417Z" fill="#CA1F3D"/>
<path id="Vector_2" fill-rule="evenodd" clip-rule="evenodd" d="M29.2777 20.8092V20.4922V20.0388V13.2454C29.0129 12.4517 28.1944 11.5625 28.1944 11.5625C28.1944 11.5625 28.4111 12.7552 28.074 13.1054C27.7129 13.4555 27.2314 13.5723 27.2314 13.5723C27.2555 13.3388 27.1351 13.1054 27.0629 12.8252C26.9666 12.4284 26.8703 11.9848 26.4611 11.6346C25.7148 11.0277 24.5592 10.8409 23.837 10.0705C23.0185 9.16008 23.0425 8.36636 23.0425 8.36636C23.0425 8.36636 22.537 8.59981 22.1277 9.09005C21.7185 9.58029 21.5018 10.3273 21.5018 10.3273C21.4536 10.1406 21.0925 9.67367 20.4185 9.20677C19.8166 8.78657 18.9499 8.3897 18.5166 7.82943C17.6981 6.80225 17.8185 5.54163 17.8185 5.54163C16.6388 5.63501 15.3148 6.59215 14.5925 7.92281C14.1351 8.76322 14.0388 9.7904 13.8944 10.4907C13.7499 11.1211 13.5333 11.4712 13.5333 11.4712C13.5333 11.4712 13.5814 10.0939 12.8833 9.11339C12.0166 7.92281 11.2703 7.94615 11.2703 7.94615C11.2703 7.94615 11.3907 8.83326 11.0536 9.51026C10.837 9.93047 10.3074 10.6075 10.1388 10.981C9.87402 11.6113 9.77772 12.1949 9.77772 12.1949C9.77772 12.1949 9.7055 12.405 9.1518 11.658C8.83883 11.2611 8.95921 10.6075 8.95921 10.6075C8.95921 10.6075 7.15365 11.9148 6.52772 12.9186C5.94995 13.8524 5.73328 14.9963 5.73328 14.9963C5.73328 14.9963 5.63698 15.0663 5.32402 14.5994C5.13143 14.296 5.01106 13.8291 5.01106 13.8291C4.89069 13.9458 4.79439 14.1325 4.72217 14.3193V26.9022C6.84069 30.8008 10.9574 31.9447 13.7981 32.2482L16.9999 31.1043L20.8518 32.4583C23.8611 32.3182 27.6888 31.5245 29.2777 28.583V20.8092Z" fill="url(#paint0_linear_104_3163)"/>
<path id="Vector_3" d="M29.0545 2.91892V35.0811L17 30.8081L4.94545 35.0811V2.91892H29.0545ZM30 2H4C4 13.027 4 24.0541 4 35.0811C4 35.3797 4.14182 35.6554 4.40182 35.8392C4.56727 35.9541 4.75636 36 4.94545 36C5.06364 36 5.15818 35.977 5.27636 35.9541L17 31.7959L28.7236 35.9541C28.8182 36 28.9364 36 29.0545 36C29.2436 36 29.4327 35.9541 29.5982 35.8392C29.8582 35.6784 30 35.3797 30 35.0811C30 24.0541 30 13.027 30 2Z" fill="url(#paint1_linear_104_3163)"/>
<g id="Vector_4">
<path d="M7.61133 19.7078V14.0416H8.73599L11.352 17.7455C11.3276 17.5247 11.3276 17.2549 11.3276 16.9851V14.0416H12.5256V19.7078H11.4009L8.78488 16.0039C8.80933 16.2247 8.80933 16.4945 8.80933 16.7888V19.7078H7.61133Z" fill="white"/>
<path d="M17.6607 14.0422V15.0969H14.9224V16.2988H17.4162V17.3535H14.9224V18.6045H17.6851V19.6592H13.7244V14.0422H17.6607Z" fill="white"/>
<path d="M26.3891 14.0422L24.6532 19.7083H23.3574L22.2328 15.7837L21.1081 19.7083H19.8368L18.1253 14.0422H19.4211L20.5213 18.3102L21.7438 14.0422H22.8195L24.0175 18.3102L25.1178 14.0422H26.3891Z" fill="white"/>
</g>
</g>
<defs>
<filter id="filter0_d_104_3163" x="0" y="0" width="34" height="42" filterUnits="userSpaceOnUse" color-interpolation-filters="sRGB">
<feFlood flood-opacity="0" result="BackgroundImageFix"/>
<feColorMatrix in="SourceAlpha" type="matrix" values="0 0 0 0 0 0 0 0 0 0 0 0 0 0 0 0 0 0 127 0" result="hardAlpha"/>
<feOffset dy="2"/>
<feGaussianBlur stdDeviation="2"/>
<feColorMatrix type="matrix" values="0 0 0 0 0 0 0 0 0 0 0 0 0 0 0 0 0 0 0.2 0"/>
<feBlend mode="normal" in2="BackgroundImageFix" result="effect1_dropShadow_104_3163"/>
<feBlend mode="normal" in="SourceGraphic" in2="effect1_dropShadow_104_3163" result="shape"/>
</filter>
<linearGradient id="paint0_linear_104_3163" x1="17.0002" y1="5.48957" x2="17.0002" y2="32.4487" gradientUnits="userSpaceOnUse">
<stop stop-color="#FF2D53"/>
<stop offset="0.2292" stop-color="#F72B50" stop-opacity="0.7708"/>
<stop offset="0.5793" stop-color="#E22648" stop-opacity="0.4207"/>
<stop offset="1" stop-color="#C01D3A" stop-opacity="0"/>
</linearGradient>
<linearGradient id="paint1_linear_104_3163" x1="16.9999" y1="36" x2="16.9999" y2="2" gradientUnits="userSpaceOnUse">
<stop stop-color="#FF2D53"/>
<stop offset="0.2292" stop-color="#F72B50"/>
<stop offset="0.5793" stop-color="#E22648"/>
<stop offset="1" stop-color="#C01D3A"/>
</linearGradient>
</defs>
</svg>
