<svg width="25" height="27" viewBox="0 0 25 27" fill="none" xmlns="http://www.w3.org/2000/svg">
<g id="Flag">
<path id="Vector" d="M0 27L12.5 21.1091L25 27V0H0V27Z" fill="#302E40"/>
<path id="Vector_2" d="M4.63922 7.90198L7.30325 11.2835C7.55735 11.6038 7.73265 11.7818 8.08315 11.7818C8.42495 11.7818 8.6177 11.6127 8.6177 11.3012V6.54937C8.6177 6.34471 8.6177 6.19342 8.5301 6.07776C8.44245 5.96205 8.2935 5.89087 8.0481 5.89087C7.80275 5.89087 7.65375 5.96205 7.56615 6.07776C7.4785 6.19342 7.4785 6.34471 7.4785 6.54937V9.70837L4.91964 6.40701C4.68304 6.09553 4.50777 5.89087 4.08713 5.89087C3.69279 5.89087 3.5 6.05994 3.5 6.36249V11.0966C3.5 11.3102 3.5 11.4614 3.58763 11.5771C3.67527 11.6928 3.82424 11.764 4.06961 11.764C4.31498 11.764 4.46396 11.6928 4.55159 11.5771C4.63922 11.4614 4.63922 11.3012 4.63922 11.0966V7.90198Z" fill="white"/>
<path id="Vector_3" d="M11.1119 6.99425H12.5227C12.7068 6.99425 12.847 6.99425 12.9609 6.91418C13.0748 6.83411 13.1362 6.70058 13.1362 6.47815C13.1362 6.24679 13.0748 6.12219 12.9609 6.04213C12.847 5.96201 12.7068 5.95312 12.5227 5.95312H10.5247C10.1216 5.95312 9.96387 6.10437 9.96387 6.52263V11.1411C9.96387 11.5504 10.1041 11.7106 10.5247 11.7106H12.7243C12.9083 11.7106 13.0485 11.7106 13.1625 11.6304C13.2764 11.5504 13.3465 11.4169 13.3465 11.1944C13.3465 10.963 13.2764 10.8385 13.1625 10.7584C13.0485 10.6783 12.9083 10.6694 12.7243 10.6694H11.1119V9.18331H12.1897C12.3825 9.18331 12.5227 9.17442 12.6367 9.09435C12.7506 9.01424 12.8119 8.88076 12.8119 8.65833C12.8119 8.43585 12.7506 8.31126 12.6367 8.23119C12.5227 8.15107 12.3825 8.14219 12.1897 8.14219H11.1119V6.99425Z" fill="white"/>
<path id="Vector_4" d="M17.6441 7.90198L18.6957 11.0966C18.8271 11.497 18.9761 11.7818 19.4844 11.7818C19.9576 11.7818 20.0715 11.5237 20.203 11.0432L21.4386 6.59385C21.4649 6.49596 21.4999 6.38031 21.4999 6.27353C21.4999 6.04217 21.3334 5.89087 20.9128 5.89087C20.4571 5.89087 20.3695 6.05994 20.2731 6.46037L19.423 10.0109L18.3627 6.69174C18.24 6.30912 18.1436 6.10441 17.6879 6.10441C17.2235 6.10441 17.1358 6.32689 17.0132 6.70062L15.9528 10.0109L15.1115 6.46037C15.0151 6.06882 14.8925 5.89087 14.4368 5.89087C13.9986 5.89087 13.8496 6.05994 13.8496 6.28242C13.8496 6.38919 13.8847 6.51378 13.911 6.62056L15.094 11.0432C15.2167 11.5148 15.3394 11.7818 15.8214 11.7818C16.3033 11.7818 16.4435 11.5148 16.5838 11.0966L17.6441 7.90198Z" fill="white"/>
</g>
</svg>
