<svg width="24" height="24" viewBox="0 0 24 24" fill="none" xmlns="http://www.w3.org/2000/svg">
<g id="Question">
<path id="&#208;&#173;&#208;&#187;&#208;&#187;&#208;&#184;&#208;&#191;&#209;&#129; 1" d="M11.9999 18.9141C12.647 18.9141 13.1716 18.3895 13.1716 17.7423C13.1716 17.0952 12.647 16.5706 11.9999 16.5706C11.3527 16.5706 10.8281 17.0952 10.8281 17.7423C10.8281 18.3895 11.3527 18.9141 11.9999 18.9141Z" fill="#E8CE3A"/>
<path id="&#208;&#154;&#208;&#190;&#208;&#189;&#209;&#130;&#209;&#131;&#209;&#128; 1" d="M12 1.6836e-06C9.62663 1.6836e-06 7.30655 0.703789 5.33316 2.02237C3.35977 3.34094 1.8217 5.21509 0.913451 7.4078C0.0051994 9.60051 -0.232441 12.0133 0.230582 14.3411C0.693604 16.6689 1.83649 18.807 3.51472 20.4853C5.19295 22.1635 7.33115 23.3064 9.65892 23.7694C11.9867 24.2324 14.3995 23.9948 16.5922 23.0865C18.7849 22.1783 20.6591 20.6402 21.9776 18.6668C23.2962 16.6934 24 14.3734 24 12C24.0008 10.4239 23.691 8.86309 23.0883 7.40681C22.4855 5.95053 21.6016 4.62733 20.4871 3.51286C19.3727 2.39839 18.0495 1.51451 16.5932 0.911746C15.1369 0.308986 13.5761 -0.000833384 12 1.6836e-06ZM12 22.1252C9.99743 22.1252 8.03983 21.5313 6.37476 20.4188C4.70968 19.3062 3.41191 17.7249 2.64556 15.8747C1.87921 14.0246 1.6787 11.9888 2.06938 10.0247C2.46006 8.06058 3.42439 6.25645 4.84042 4.84042C6.25645 3.42439 8.06059 2.46006 10.0247 2.06938C11.9888 1.67869 14.0246 1.87921 15.8747 2.64556C17.7249 3.41191 19.3062 4.70968 20.4188 6.37475C21.5313 8.03983 22.1252 9.99743 22.1252 12C22.1259 13.3299 21.8645 14.6468 21.356 15.8756C20.8474 17.1044 20.1016 18.2209 19.1612 19.1612C18.2209 20.1016 17.1044 20.8474 15.8756 21.3559C14.6468 21.8645 13.3299 22.1259 12 22.1252Z" fill="#E8CE3A"/>
<path id="&#208;&#154;&#208;&#190;&#208;&#189;&#209;&#130;&#209;&#131;&#209;&#128; 2" d="M12 6.02319C11.0057 6.02431 10.0524 6.4198 9.34932 7.12288C8.64624 7.82597 8.25075 8.77924 8.24963 9.77355C8.24963 10.0222 8.3484 10.2606 8.5242 10.4364C8.69999 10.6122 8.93843 10.711 9.18705 10.711C9.43567 10.711 9.6741 10.6122 9.8499 10.4364C10.0257 10.2606 10.1245 10.0222 10.1245 9.77355C10.1245 9.40274 10.2344 9.04026 10.4404 8.73195C10.6464 8.42363 10.9392 8.18334 11.2818 8.04143C11.6244 7.89953 12.0014 7.86241 12.365 7.93475C12.7287 8.00709 13.0628 8.18564 13.325 8.44784C13.5872 8.71004 13.7657 9.04411 13.8381 9.40779C13.9104 9.77147 13.8733 10.1484 13.7314 10.491C13.5895 10.8336 13.3492 11.1264 13.0409 11.3324C12.7326 11.5384 12.3701 11.6484 11.9993 11.6484C11.7507 11.6484 11.5122 11.7471 11.3364 11.9229C11.1606 12.0987 11.0619 12.3372 11.0619 12.5858V14.9293C11.0619 15.1779 11.1606 15.4164 11.3364 15.5922C11.5122 15.768 11.7507 15.8667 11.9993 15.8667C12.2479 15.8667 12.4863 15.768 12.6621 15.5922C12.8379 15.4164 12.9367 15.1779 12.9367 14.9293V13.4046C13.8203 13.1762 14.5904 12.6335 15.1025 11.8781C15.6147 11.1227 15.8338 10.2064 15.7188 9.30106C15.6038 8.39567 15.1626 7.56329 14.4779 6.95987C13.7932 6.35646 12.9119 6.02343 11.9993 6.02319H12Z" fill="#E8CE3A"/>
</g>
</svg>
