<svg width="20" height="19" viewBox="0 0 20 19" fill="none" xmlns="http://www.w3.org/2000/svg">
<g id="magnifying-glass-regular 1" clip-path="url(#clip0_104_2905)">
<path id="Vector" d="M18.8533 17.8321L18.8605 17.8393L18.868 17.8462C19.0351 18.0001 19.0334 18.2366 18.8853 18.3858C18.809 18.4619 18.7087 18.5 18.6094 18.5C18.5176 18.5 18.4047 18.4678 18.2823 18.3688L13.326 13.4125L13.0108 13.0974L12.6617 13.3744C11.4306 14.3513 9.87812 14.9375 8.18536 14.9375C4.2332 14.9375 1 11.7068 1 7.71875C1 3.72931 4.20157 0.5 8.18536 0.5C12.172 0.5 15.4041 3.73107 15.4041 7.71875C15.4041 9.41779 14.8481 10.964 13.847 12.1895L13.5609 12.5397L13.8806 12.8594L18.8533 17.8321ZM8.21876 1.28125C4.66883 1.28125 1.78126 4.16882 1.78126 7.71875C1.78126 11.2679 4.66879 14.1562 8.21876 14.1562C11.7687 14.1562 14.6563 11.2687 14.6563 7.71875C14.6563 4.16882 11.7687 1.28125 8.21876 1.28125Z" fill="white" stroke="white"/>
</g>
<defs>
<clipPath id="clip0_104_2905">
<rect width="19" height="19" fill="white" transform="translate(0.5)"/>
</clipPath>
</defs>
</svg>
