<svg width="29" height="25" viewBox="0 0 29 25" fill="none" xmlns="http://www.w3.org/2000/svg">
<path fill-rule="evenodd" clip-rule="evenodd" d="M14.5 0C22.5151 0 29 4.80752 29 10.7043C29 14.3832 26.4983 17.6859 22.6393 19.6107L22.6837 19.65C22.6837 21.2817 23.868 22.9965 24.4225 23.8714C24.4225 23.9982 24.4624 24.1251 24.4624 24.2082C24.4624 24.6238 24.0809 25 23.6595 25H23.4067C20.6078 24.5407 17.9376 21.9904 17.3033 21.238C16.4117 21.3648 15.4359 21.4479 14.5044 21.4479C6.48486 21.4523 0 16.6404 0 10.7043C0 4.76815 6.48486 0 14.5 0Z" fill="white"/>
</svg>
