<svg width="24" height="24" viewBox="0 0 24 24" fill="none" xmlns="http://www.w3.org/2000/svg">
<rect width="24" height="24" rx="12" fill="white"/>
<path d="M17 17V15.6667C17 14.9594 16.699 14.2811 16.1632 13.781C15.6273 13.281 14.9006 13 14.1429 13H9.85714C9.09938 13 8.37266 13.281 7.83684 13.781C7.30102 14.2811 7 14.9594 7 15.6667V17" fill="black"/>
<path d="M12 11C13.1046 11 14 10.1046 14 9C14 7.89543 13.1046 7 12 7C10.8954 7 10 7.89543 10 9C10 10.1046 10.8954 11 12 11Z" fill="black" stroke="black" stroke-width="2" stroke-linecap="round" stroke-linejoin="round"/>
</svg>
