<svg width="35" height="38" viewBox="0 0 35 38" fill="none" xmlns="http://www.w3.org/2000/svg">
<g filter="url(#filter0_d_2_19736)">
<rect width="35" height="35" rx="17.5" fill="#264484"/>
<path d="M25.2835 13.0567C25.2835 13.2043 25.2249 13.3459 25.1205 13.4503C25.0161 13.5548 24.8745 13.6134 24.7268 13.6134H21.933C21.7853 13.6134 21.6437 13.5548 21.5393 13.4503C21.4349 13.3459 21.3763 13.2043 21.3763 13.0567V10.2835C21.3763 10.1359 21.4349 9.99426 21.5393 9.88986C21.6437 9.78546 21.7853 9.7268 21.933 9.7268H24.7165C24.8641 9.7268 25.0057 9.78546 25.1101 9.88986C25.2145 9.99426 25.2732 10.1359 25.2732 10.2835V13.067L25.2835 13.0567ZM25.2835 24.7268C25.2835 24.8745 25.2249 25.0161 25.1205 25.1205C25.0161 25.2249 24.8745 25.2835 24.7268 25.2835H10.2835C10.1359 25.2835 9.99426 25.2249 9.88986 25.1205C9.78546 25.0161 9.7268 24.8745 9.7268 24.7268V15.8402H11.6237C11.3658 16.7496 11.3223 17.7064 11.4966 18.6354C11.6708 19.5644 12.0582 20.4404 12.6281 21.1944C13.1981 21.9485 13.9351 22.5602 14.7813 22.9813C15.6276 23.4025 16.5599 23.6216 17.5052 23.6216C18.4504 23.6216 19.3827 23.4025 20.229 22.9813C21.0752 22.5602 21.8122 21.9485 22.3822 21.1944C22.9521 20.4404 23.3395 19.5644 23.5138 18.6354C23.688 17.7064 23.6445 16.7496 23.3866 15.8402H25.2835V24.7371V24.7268ZM17.5 13.6134C18.2687 13.6134 19.0201 13.8413 19.6593 14.2684C20.2984 14.6955 20.7966 15.3025 21.0907 16.0127C21.3849 16.7228 21.4619 17.5043 21.3119 18.2582C21.162 19.0122 20.7918 19.7047 20.2482 20.2482C19.7047 20.7918 19.0122 21.162 18.2582 21.3119C17.5043 21.4619 16.7228 21.3849 16.0127 21.0907C15.3025 20.7966 14.6955 20.2984 14.2684 19.6593C13.8413 19.0201 13.6134 18.2687 13.6134 17.5C13.6134 16.4692 14.0229 15.4806 14.7518 14.7518C15.4806 14.0229 16.4692 13.6134 17.5 13.6134ZM24.7165 7.5H10.2835C9.54527 7.5 8.83728 7.79326 8.31527 8.31527C7.79326 8.83728 7.5 9.54527 7.5 10.2835V24.7165C7.5 25.4547 7.79326 26.1627 8.31527 26.6847C8.83728 27.2067 9.54527 27.5 10.2835 27.5H24.7165C25.4547 27.5 26.1627 27.2067 26.6847 26.6847C27.2067 26.1627 27.5 25.4547 27.5 24.7165V10.2835C27.5 9.54706 27.2082 8.84062 26.6884 8.31891C26.1686 7.79719 25.4632 7.50273 24.7268 7.5H24.7165Z" fill="white"/>
</g>
<defs>
<filter id="filter0_d_2_19736" x="0" y="0" width="35" height="38" filterUnits="userSpaceOnUse" color-interpolation-filters="sRGB">
<feFlood flood-opacity="0" result="BackgroundImageFix"/>
<feColorMatrix in="SourceAlpha" type="matrix" values="0 0 0 0 0 0 0 0 0 0 0 0 0 0 0 0 0 0 127 0" result="hardAlpha"/>
<feOffset dy="3"/>
<feColorMatrix type="matrix" values="0 0 0 0 0.0862745 0 0 0 0 0.156863 0 0 0 0 0.301961 0 0 0 1 0"/>
<feBlend mode="normal" in2="BackgroundImageFix" result="effect1_dropShadow_2_19736"/>
<feBlend mode="normal" in="SourceGraphic" in2="effect1_dropShadow_2_19736" result="shape"/>
</filter>
</defs>
</svg>
