<svg width="35" height="38" viewBox="0 0 35 38" fill="none" xmlns="http://www.w3.org/2000/svg">
<g filter="url(#filter0_d_2_19740)">
<rect width="35" height="35" rx="17.5" fill="#2CA3DF"/>
<path d="M7.8445 17.1565L12.4479 18.8268L14.2276 24.3748C14.2566 24.458 14.305 24.5332 14.3687 24.5941C14.4324 24.6551 14.5096 24.7 14.5941 24.7252C14.6785 24.7505 14.7677 24.7553 14.8544 24.7393C14.9411 24.7233 15.0228 24.687 15.0927 24.6333L17.6578 22.6448C17.7924 22.5432 17.9565 22.4882 18.1252 22.4882C18.2938 22.4882 18.4579 22.5432 18.5925 22.6448L23.2456 25.8364C23.3193 25.8872 23.4042 25.9195 23.493 25.9306C23.5818 25.9417 23.6721 25.9311 23.756 25.8999C23.8399 25.8687 23.915 25.8177 23.975 25.7512C24.035 25.6848 24.0781 25.6049 24.1007 25.5182L27.4911 9.69952C27.5085 9.60521 27.5003 9.50797 27.4674 9.41789C27.4345 9.32782 27.3781 9.2482 27.304 9.18731C27.2299 9.12642 27.1409 9.08648 27.0461 9.07165C26.9514 9.05681 26.8544 9.06763 26.7653 9.10296L7.87432 16.1722C7.76902 16.2024 7.67605 16.2653 7.60881 16.3518C7.54158 16.4383 7.50356 16.5439 7.50024 16.6534C7.49692 16.7629 7.52847 16.8707 7.59035 16.9611C7.65222 17.0515 7.74122 17.1199 7.8445 17.1565ZM13.9393 17.932L22.9374 12.563C22.969 12.5379 23.0093 12.5265 23.0494 12.5311C23.0895 12.5358 23.1261 12.5562 23.1511 12.5878C23.1762 12.6195 23.1876 12.6598 23.183 12.6999C23.1783 12.74 23.1579 12.7766 23.1263 12.8016L15.6992 19.493C15.443 19.7284 15.2747 20.044 15.2219 20.3878L14.9733 22.2173C14.9587 22.2665 14.9285 22.3097 14.8873 22.3404C14.8461 22.3711 14.7961 22.3877 14.7447 22.3877C14.6933 22.3877 14.6433 22.3711 14.6021 22.3404C14.5609 22.3097 14.5307 22.2665 14.516 22.2173L13.5217 18.9064C13.4751 18.7206 13.4907 18.5247 13.5662 18.3487C13.6416 18.1727 13.7727 18.0263 13.9393 17.932Z" fill="white"/>
</g>
<defs>
<filter id="filter0_d_2_19740" x="0" y="0" width="35" height="38" filterUnits="userSpaceOnUse" color-interpolation-filters="sRGB">
<feFlood flood-opacity="0" result="BackgroundImageFix"/>
<feColorMatrix in="SourceAlpha" type="matrix" values="0 0 0 0 0 0 0 0 0 0 0 0 0 0 0 0 0 0 127 0" result="hardAlpha"/>
<feOffset dy="3"/>
<feColorMatrix type="matrix" values="0 0 0 0 0.101961 0 0 0 0 0.419608 0 0 0 0 0.517647 0 0 0 1 0"/>
<feBlend mode="normal" in2="BackgroundImageFix" result="effect1_dropShadow_2_19740"/>
<feBlend mode="normal" in="SourceGraphic" in2="effect1_dropShadow_2_19740" result="shape"/>
</filter>
</defs>
</svg>
