<svg width="35" height="38" viewBox="0 0 35 38" fill="none" xmlns="http://www.w3.org/2000/svg">
<g filter="url(#filter0_d_2_19745)">
<rect width="35" height="35" rx="17.5" fill="#FF0000"/>
<path d="M19.8661 21.3839V23.7388C19.8661 24.2374 19.7146 24.4866 19.4116 24.4866C19.2328 24.4866 19.058 24.4048 18.8871 24.2411V20.8817C19.058 20.718 19.2328 20.6362 19.4116 20.6362C19.7146 20.6362 19.8661 20.8854 19.8661 21.3839ZM23.8055 21.3951V21.9085H22.7565V21.3951C22.7565 20.8891 22.9314 20.6362 23.281 20.6362C23.6307 20.6362 23.8055 20.8891 23.8055 21.3951ZM12.5468 18.9621H13.7938V17.9129H10.1575V18.9621H11.3813V25.3125H12.5468V18.9621ZM15.9034 25.3125H16.9407V19.7991H15.9034V24.0179C15.6703 24.3304 15.4489 24.4866 15.2391 24.4866C15.0992 24.4866 15.0176 24.4085 14.9943 24.2522C14.9865 24.2299 14.9827 24.0997 14.9827 23.8616V19.7991H13.9454V24.1629C13.9454 24.5275 13.9764 24.7991 14.0386 24.9777C14.1318 25.253 14.3572 25.3906 14.7146 25.3906C15.0875 25.3906 15.4838 25.1637 15.9034 24.7098V25.3125ZM20.9034 23.6607V21.4621C20.9034 20.9189 20.8684 20.5506 20.7985 20.3571C20.6664 19.9405 20.3906 19.7321 19.971 19.7321C19.5825 19.7321 19.2212 19.933 18.8871 20.3348V17.9129H17.8498V25.3125H18.8871V24.7768C19.2367 25.186 19.598 25.3906 19.971 25.3906C20.3906 25.3906 20.6664 25.186 20.7985 24.7768C20.8684 24.5759 20.9034 24.2039 20.9034 23.6607ZM24.8428 23.5491V23.404H23.7822C23.7822 23.7835 23.7744 24.0104 23.7589 24.0848C23.7045 24.3527 23.5491 24.4866 23.2927 24.4866C22.9353 24.4866 22.7565 24.2299 22.7565 23.7165V22.7455H24.8428V21.596C24.8428 21.0082 24.7379 20.5766 24.5281 20.3013C24.2251 19.9219 23.8133 19.7321 23.2927 19.7321C22.7643 19.7321 22.3486 19.9219 22.0456 20.3013C21.828 20.5766 21.7192 21.0082 21.7192 21.596V23.5268C21.7192 24.1146 21.8319 24.5461 22.0572 24.8214C22.3603 25.2009 22.7799 25.3906 23.316 25.3906C23.8754 25.3906 24.295 25.1935 24.5747 24.7991C24.7146 24.5982 24.7962 24.3973 24.8195 24.1964C24.835 24.1295 24.8428 23.9137 24.8428 23.5491ZM17.7565 13.3594V11.0156C17.7565 10.5022 17.5895 10.2455 17.2554 10.2455C16.9213 10.2455 16.7542 10.5022 16.7542 11.0156V13.3594C16.7542 13.8802 16.9213 14.1406 17.2554 14.1406C17.5895 14.1406 17.7565 13.8802 17.7565 13.3594ZM26.1365 21.7411C26.1365 23.4821 26.0355 24.7842 25.8335 25.6473C25.7247 26.0863 25.4994 26.4546 25.1575 26.7522C24.8156 27.0499 24.4193 27.221 23.9687 27.2656C22.539 27.4219 20.3828 27.5 17.5001 27.5C14.6175 27.5 12.4613 27.4219 11.0316 27.2656C10.5809 27.221 10.1827 27.0499 9.83696 26.7522C9.4912 26.4546 9.26781 26.0863 9.1668 25.6473C8.96478 24.814 8.86377 23.5119 8.86377 21.7411C8.86377 20 8.96478 18.6979 9.1668 17.8348C9.27558 17.3958 9.50091 17.0275 9.84279 16.7299C10.1847 16.4323 10.5848 16.2574 11.0433 16.2054C12.4652 16.0565 14.6175 15.9821 17.5001 15.9821C20.3828 15.9821 22.539 16.0565 23.9687 16.2054C24.4193 16.2574 24.8175 16.4323 25.1633 16.7299C25.5091 17.0275 25.7325 17.3958 25.8335 17.8348C26.0355 18.6682 26.1365 19.9702 26.1365 21.7411ZM14.5048 7.5H15.6936L14.2833 11.9531V14.9777H13.1178V11.9531C13.0091 11.4025 12.7721 10.6138 12.4069 9.58705C12.1194 8.82068 11.8669 8.125 11.6493 7.5H12.8847L13.7123 10.4353L14.5048 7.5ZM18.8172 11.2165V13.1696C18.8172 13.7723 18.7084 14.2113 18.4908 14.4866C18.2033 14.8661 17.7915 15.0558 17.2554 15.0558C16.7348 15.0558 16.3269 14.8661 16.0316 14.4866C15.814 14.2039 15.7053 13.7649 15.7053 13.1696V11.2165C15.7053 10.6213 15.814 10.186 16.0316 9.91071C16.3269 9.53125 16.7348 9.34152 17.2554 9.34152C17.7915 9.34152 18.2033 9.53125 18.4908 9.91071C18.7084 10.186 18.8172 10.6213 18.8172 11.2165ZM22.7216 9.40848V14.9777H21.661V14.3638C21.2492 14.8251 20.849 15.0558 20.4605 15.0558C20.1031 15.0558 19.8739 14.9182 19.7729 14.6429C19.7107 14.4643 19.6796 14.1853 19.6796 13.8058V9.40848H20.7402V13.5045C20.7402 13.75 20.7441 13.8802 20.7519 13.8951C20.7752 14.0588 20.8568 14.1406 20.9966 14.1406C21.2064 14.1406 21.4279 13.9807 21.661 13.6607V9.40848H22.7216Z" fill="white"/>
</g>
<defs>
<filter id="filter0_d_2_19745" x="0" y="0" width="35" height="38" filterUnits="userSpaceOnUse" color-interpolation-filters="sRGB">
<feFlood flood-opacity="0" result="BackgroundImageFix"/>
<feColorMatrix in="SourceAlpha" type="matrix" values="0 0 0 0 0 0 0 0 0 0 0 0 0 0 0 0 0 0 127 0" result="hardAlpha"/>
<feOffset dy="3"/>
<feColorMatrix type="matrix" values="0 0 0 0 0.470588 0 0 0 0 0.0901961 0 0 0 0 0.0705882 0 0 0 1 0"/>
<feBlend mode="normal" in2="BackgroundImageFix" result="effect1_dropShadow_2_19745"/>
<feBlend mode="normal" in="SourceGraphic" in2="effect1_dropShadow_2_19745" result="shape"/>
</filter>
</defs>
</svg>
