<svg width="35" height="38" viewBox="0 0 35 38" fill="none" xmlns="http://www.w3.org/2000/svg">
<g filter="url(#filter0_d_2_19749)">
<rect width="35" height="35" rx="17.5" fill="#3A6AA3"/>
<path d="M17.2832 23.4576H18.4815C18.6841 23.4337 18.875 23.3459 19.0293 23.2059C19.1391 23.0467 19.1962 22.8541 19.1919 22.6575C19.1919 22.6575 19.1919 20.9766 19.9109 20.7249C20.6298 20.4732 21.6227 22.3519 22.5899 23.071C22.9653 23.3831 23.4394 23.5341 23.9166 23.4935H26.587C26.587 23.4935 27.9822 23.4036 27.3231 22.253C26.797 21.3369 26.1254 20.5221 25.3374 19.844C23.6256 18.208 23.8909 18.4776 25.9023 15.6551C27.1348 13.9382 27.6142 12.8865 27.4687 12.437C27.3231 11.9876 26.4159 12.0774 26.4159 12.0774H23.4116C23.2793 12.0616 23.1454 12.0866 23.0264 12.1494C22.9123 12.2383 22.8212 12.3557 22.7611 12.4909C22.4489 13.3398 22.077 14.1631 21.6484 14.9539C20.3388 17.354 19.7739 17.4888 19.5514 17.336C19.0464 16.9944 19.1662 15.9517 19.1662 15.2056C19.1662 12.8954 19.5 11.9246 18.5157 11.6729C18.0591 11.5582 17.5897 11.5099 17.1206 11.5291C16.2787 11.4471 15.4297 11.5387 14.6213 11.7988C14.2789 11.9786 14.0136 12.3651 14.1762 12.3921C14.5065 12.4321 14.8112 12.5985 15.0321 12.8595C15.241 13.3033 15.3439 13.7938 15.3317 14.2887C15.3317 14.2887 15.5114 16.9855 14.9208 17.354C14.5186 17.5877 13.9622 17.1113 12.7639 14.9449C12.3686 14.1901 12.0198 13.4095 11.7197 12.6078C11.6657 12.4713 11.5804 12.3509 11.4715 12.2572C11.3318 12.1591 11.1745 12.0918 11.0093 12.0595L8.1505 12.0774C8.1505 12.0774 7.72254 12.0864 7.56847 12.2842C7.41441 12.482 7.56847 12.8145 7.56847 12.8145C7.56847 12.8145 9.80243 18.3068 12.336 21.0845C12.9645 21.8161 13.7294 22.4043 14.5834 22.8125C15.4374 23.2208 16.3622 23.4403 17.3003 23.4576H17.2832Z" fill="white"/>
</g>
<defs>
<filter id="filter0_d_2_19749" x="0" y="0" width="35" height="38" filterUnits="userSpaceOnUse" color-interpolation-filters="sRGB">
<feFlood flood-opacity="0" result="BackgroundImageFix"/>
<feColorMatrix in="SourceAlpha" type="matrix" values="0 0 0 0 0 0 0 0 0 0 0 0 0 0 0 0 0 0 127 0" result="hardAlpha"/>
<feOffset dy="3"/>
<feColorMatrix type="matrix" values="0 0 0 0 0.133333 0 0 0 0 0.247059 0 0 0 0 0.380392 0 0 0 1 0"/>
<feBlend mode="normal" in2="BackgroundImageFix" result="effect1_dropShadow_2_19749"/>
<feBlend mode="normal" in="SourceGraphic" in2="effect1_dropShadow_2_19749" result="shape"/>
</filter>
</defs>
</svg>
